# xmcd CD database file
#
# Track frame offsets:
#	150
#	27720
#	103216
#	123999
#	138623
#	166258
#	189893
#	222398
#	241971
#	258299
#	280546
#	308500
#
# Disc length: 4447 seconds
#
# Revision: 1
# Processed by: cddbd v1.5.2PL0 Copyright (c) Steve Scherf et al.
# Submitted via: CDex 1.70beta2
#
DISCID=a7115d0c
DTITLE=salsa - Salsa - Salsa Les Titres Essentiels
DYEAR=2002
DGENRE=Salsa
TTITLE0=Johnny Colon - Guantanamera
TTITLE1=Fania All Stars - Quitate Tu
TTITLE2=Johnny Colon - Son Montuno
TTITLE3=Tino Puente - Pata Pata
TTITLE4=Fania All Stars - Coro Miyare
TTITLE5=Pete 'El Conde' Rodriguez - Catalina La O
TTITLE6=Fania All Stars - Anacoana
TTITLE7=Celia Cruz - Son Matamoros
TTITLE8=Fania All Stars - Mi Gente
TTITLE9=Fania All Stars - Djobi Djoba
TTITLE10=Celia Cruz - Soy Antillana
TTITLE11=Sonora Poncena - Guaguanco De Esquina
EXTD=YEAR: 2002
EXTT0=
EXTT1=
EXTT2=
EXTT3=
EXTT4=
EXTT5=
EXTT6=
EXTT7=
EXTT8=
EXTT9=
EXTT10=
EXTT11=
PLAYORDER=
